{
    "asset" : {
        "generator" : "Khronos glTF Blender I/O v1.8.19",
        "version" : "2.0"
    },
    "scene" : 0,
    "scenes" : [
        {
            "name" : "Scene",
            "nodes" : [
                0,
                1,
                2,
                3,
                4,
                5,
                6,
                7,
                8,
                9,
                10,
                11,
                12
            ]
        }
    ],
    "nodes" : [
        {
            "name" : "Empty",
            "rotation" : [
                0.5,
                0.5,
                -0.5,
                0.4999999701976776
            ],
            "scale" : [
                5.78914737701416,
                1,
                5.78914737701416
            ],
            "translation" : [
                -5.412416458129883,
                -0.4214619994163513,
                -1.000479817390442
            ]
        },
        {
            "mesh" : 0,
            "name" : "Body",
            "rotation" : [
                0.46484819054603577,
                0,
                0,
                0.8853905200958252
            ],
            "scale" : [
                41.39469528198242,
                41.394691467285156,
                41.394691467285156
            ],
            "translation" : [
                -81.52767181396484,
                203.6064453125,
                -146.00421142578125
            ]
        },
        {
            "mesh" : 1,
            "name" : "Tail",
            "scale" : [
                30.130584716796875,
                30.130584716796875,
                30.130584716796875
            ],
            "translation" : [
                -81.52767181396484,
                191.07899475097656,
                -45.784423828125
            ]
        },
        {
            "mesh" : 2,
            "name" : "Wing",
            "scale" : [
                12.527472496032715,
                12.527472496032715,
                12.527472496032715
            ],
            "translation" : [
                -81.52767181396484,
                191.07899475097656,
                -133.47674560546875
            ]
        },
        {
            "mesh" : 3,
            "name" : "head",
            "scale" : [
                31.438512802124023,
                31.438512802124023,
                31.438512802124023
            ],
            "translation" : [
                -81.52767181396484,
                252.01123046875,
                -171.93966674804688
            ]
        },
        {
            "mesh" : 4,
            "name" : "joint",
            "scale" : [
                12.527472496032715,
                12.527472496032715,
                12.527472496032715
            ],
            "translation" : [
                -81.52767181396484,
                170.53707885742188,
                -133.47674560546875
            ]
        },
        {
            "mesh" : 5,
            "name" : "legs",
            "scale" : [
                12.527472496032715,
                12.527472496032715,
                12.527472496032715
            ],
            "translation" : [
                -81.52767181396484,
                124.156005859375,
                -133.47674560546875
            ]
        },
        {
            "mesh" : 6,
            "name" : "knee joint",
            "scale" : [
                12.527472496032715,
                12.527472496032715,
                12.527472496032715
            ],
            "translation" : [
                -81.52767181396484,
                191.07899475097656,
                -133.47674560546875
            ]
        },
        {
            "mesh" : 7,
            "name" : "knee joint.001",
            "scale" : [
                12.527472496032715,
                12.527472496032715,
                12.527472496032715
            ],
            "translation" : [
                -81.52767181396484,
                163.52980041503906,
                -156.49249267578125
            ]
        },
        {
            "name" : "Empty.001",
            "rotation" : [
                0.5,
                0.5,
                -0.5,
                0.4999999701976776
            ],
            "scale" : [
                1.2233901023864746,
                1,
                1.2233901023864746
            ],
            "translation" : [
                -3.407383441925049,
                0.7654691934585571,
                -12.88039779663086
            ]
        },
        {
            "mesh" : 8,
            "name" : "toe2",
            "scale" : [
                -12.527472496032715,
                12.527472496032715,
                -12.527472496032715
            ],
            "translation" : [
                -81.52767181396484,
                191.07899475097656,
                -342.56787109375
            ]
        },
        {
            "mesh" : 9,
            "name" : "Toe1",
            "scale" : [
                -12.527472496032715,
                12.527472496032715,
                -12.527472496032715
            ],
            "translation" : [
                -81.52767181396484,
                191.07899475097656,
                -342.56787109375
            ]
        },
        {
            "mesh" : 10,
            "name" : "toeback",
            "scale" : [
                -12.527472496032715,
                12.527472496032715,
                -12.527472496032715
            ],
            "translation" : [
                -81.52767181396484,
                191.07899475097656,
                -342.56787109375
            ]
        }
    ],
    "materials" : [
        {
            "doubleSided" : true,
            "name" : "Material",
            "pbrMetallicRoughness" : {
                "baseColorFactor" : [
                    0.800000011920929,
                    0.800000011920929,
                    0.800000011920929,
                    1
                ],
                "metallicFactor" : 0,
                "roughnessFactor" : 0.4000000059604645
            }
        }
    ],
    "meshes" : [
        {
            "name" : "Cube.001",
            "primitives" : [
                {
                    "attributes" : {
                        "POSITION" : 0,
                        "NORMAL" : 1,
                        "TEXCOORD_0" : 2
                    },
                    "indices" : 3,
                    "material" : 0
                }
            ]
        },
        {
            "name" : "Cube.002",
            "primitives" : [
                {
                    "attributes" : {
                        "POSITION" : 4,
                        "NORMAL" : 5,
                        "TEXCOORD_0" : 6
                    },
                    "indices" : 7,
                    "material" : 0
                }
            ]
        },
        {
            "name" : "Cube.005",
            "primitives" : [
                {
                    "attributes" : {
                        "POSITION" : 8,
                        "NORMAL" : 9,
                        "TEXCOORD_0" : 10
                    },
                    "indices" : 11
                }
            ]
        },
        {
            "name" : "Cube.006",
            "primitives" : [
                {
                    "attributes" : {
                        "POSITION" : 12,
                        "NORMAL" : 13,
                        "TEXCOORD_0" : 14
                    },
                    "indices" : 15
                }
            ]
        },
        {
            "name" : "Cube.007",
            "primitives" : [
                {
                    "attributes" : {
                        "POSITION" : 16,
                        "NORMAL" : 17,
                        "TEXCOORD_0" : 18
                    },
                    "indices" : 19
                }
            ]
        },
        {
            "name" : "Cylinder",
            "primitives" : [
                {
                    "attributes" : {
                        "POSITION" : 20,
                        "NORMAL" : 21,
                        "TEXCOORD_0" : 22
                    },
                    "indices" : 23
                }
            ]
        },
        {
            "name" : "Cube.008",
            "primitives" : [
                {
                    "attributes" : {
                        "POSITION" : 24,
                        "NORMAL" : 25,
                        "TEXCOORD_0" : 26
                    },
                    "indices" : 27
                }
            ]
        },
        {
            "name" : "Cube.010",
            "primitives" : [
                {
                    "attributes" : {
                        "POSITION" : 28,
                        "NORMAL" : 29,
                        "TEXCOORD_0" : 30
                    },
                    "indices" : 31
                }
            ]
        },
        {
            "name" : "Cube",
            "primitives" : [
                {
                    "attributes" : {
                        "POSITION" : 32,
                        "NORMAL" : 33,
                        "TEXCOORD_0" : 34
                    },
                    "indices" : 35
                }
            ]
        },
        {
            "name" : "Cube.004",
            "primitives" : [
                {
                    "attributes" : {
                        "POSITION" : 36,
                        "NORMAL" : 37,
                        "TEXCOORD_0" : 38
                    },
                    "indices" : 39
                }
            ]
        },
        {
            "name" : "Cube.009",
            "primitives" : [
                {
                    "attributes" : {
                        "POSITION" : 40,
                        "NORMAL" : 41,
                        "TEXCOORD_0" : 42
                    },
                    "indices" : 43
                }
            ]
        }
    ],
    "accessors" : [
        {
            "bufferView" : 0,
            "componentType" : 5126,
            "count" : 64,
            "max" : [
                0.8395060300827026,
                1.1392700672149658,
                1.336085557937622
            ],
            "min" : [
                0,
                -0.9302536249160767,
                -0.9435823559761047
            ],
            "type" : "VEC3"
        },
        {
            "bufferView" : 1,
            "componentType" : 5126,
            "count" : 64,
            "type" : "VEC3"
        },
        {
            "bufferView" : 2,
            "componentType" : 5126,
            "count" : 64,
            "type" : "VEC2"
        },
        {
            "bufferView" : 3,
            "componentType" : 5123,
            "count" : 96,
            "type" : "SCALAR"
        },
        {
            "bufferView" : 4,
            "componentType" : 5126,
            "count" : 48,
            "max" : [
                0.3548545837402344,
                0.5703262090682983,
                1.3022282123565674
            ],
            "min" : [
                0,
                -0.02113884687423706,
                -1.8144073486328125
            ],
            "type" : "VEC3"
        },
        {
            "bufferView" : 5,
            "componentType" : 5126,
            "count" : 48,
            "type" : "VEC3"
        },
        {
            "bufferView" : 6,
            "componentType" : 5126,
            "count" : 48,
            "type" : "VEC2"
        },
        {
            "bufferView" : 7,
            "componentType" : 5123,
            "count" : 72,
            "type" : "SCALAR"
        },
        {
            "bufferView" : 8,
            "componentType" : 5126,
            "count" : 96,
            "max" : [
                4.0292840003967285,
                2.303074359893799,
                0.8395062685012817
            ],
            "min" : [
                2.350271463394165,
                0.6240617036819458,
                -0.8395062685012817
            ],
            "type" : "VEC3"
        },
        {
            "bufferView" : 9,
            "componentType" : 5126,
            "count" : 96,
            "type" : "VEC3"
        },
        {
            "bufferView" : 10,
            "componentType" : 5126,
            "count" : 96,
            "type" : "VEC2"
        },
        {
            "bufferView" : 11,
            "componentType" : 5123,
            "count" : 144,
            "type" : "SCALAR"
        },
        {
            "bufferView" : 12,
            "componentType" : 5126,
            "count" : 1420,
            "max" : [
                0.8395062685012817,
                0.8395062685012817,
                0.8395062685012817
            ],
            "min" : [
                -2.514570951461792e-08,
                -0.8395062685012817,
                -1.5060900449752808
            ],
            "type" : "VEC3"
        },
        {
            "bufferView" : 13,
            "componentType" : 5126,
            "count" : 1420,
            "type" : "VEC3"
        },
        {
            "bufferView" : 14,
            "componentType" : 5126,
            "count" : 1420,
            "type" : "VEC2"
        },
        {
            "bufferView" : 15,
            "componentType" : 5123,
            "count" : 2130,
            "type" : "SCALAR"
        },
        {
            "bufferView" : 16,
            "componentType" : 5126,
            "count" : 576,
            "max" : [
                1.3846739530563354,
                -0.6993899345397949,
                0.4230619966983795
            ],
            "min" : [
                0.5614727735519409,
                -1.1685495376586914,
                -0.4363407492637634
            ],
            "type" : "VEC3"
        },
        {
            "bufferView" : 17,
            "componentType" : 5126,
            "count" : 576,
            "type" : "VEC3"
        },
        {
            "bufferView" : 18,
            "componentType" : 5126,
            "count" : 576,
            "type" : "VEC2"
        },
        {
            "bufferView" : 19,
            "componentType" : 5123,
            "count" : 864,
            "type" : "SCALAR"
        },
        {
            "bufferView" : 20,
            "componentType" : 5126,
            "count" : 960,
            "max" : [
                1.3165048360824585,
                2.8407015800476074,
                0.36332613229751587
            ],
            "min" : [
                0.7410432696342468,
                -0.49536049365997314,
                -1.8056330680847168
            ],
            "type" : "VEC3"
        },
        {
            "bufferView" : 21,
            "componentType" : 5126,
            "count" : 960,
            "type" : "VEC3"
        },
        {
            "bufferView" : 22,
            "componentType" : 5126,
            "count" : 960,
            "type" : "VEC2"
        },
        {
            "bufferView" : 23,
            "componentType" : 5123,
            "count" : 1524,
            "type" : "SCALAR"
        },
        {
            "bufferView" : 24,
            "componentType" : 5126,
            "count" : 1024,
            "max" : [
                1.373367190361023,
                -3.247812032699585,
                0.41994500160217285
            ],
            "min" : [
                0.6930778622627258,
                -3.8808696269989014,
                -0.21311263740062714
            ],
            "type" : "VEC3"
        },
        {
            "bufferView" : 25,
            "componentType" : 5126,
            "count" : 1024,
            "type" : "VEC3"
        },
        {
            "bufferView" : 26,
            "componentType" : 5126,
            "count" : 1024,
            "type" : "VEC2"
        },
        {
            "bufferView" : 27,
            "componentType" : 5123,
            "count" : 1536,
            "type" : "SCALAR"
        },
        {
            "bufferView" : 28,
            "componentType" : 5126,
            "count" : 1024,
            "max" : [
                1.3555269241333008,
                -3.145331621170044,
                0.569191038608551
            ],
            "min" : [
                0.6396163702011108,
                -3.7783892154693604,
                -0.06386661529541016
            ],
            "type" : "VEC3"
        },
        {
            "bufferView" : 29,
            "componentType" : 5126,
            "count" : 1024,
            "type" : "VEC3"
        },
        {
            "bufferView" : 30,
            "componentType" : 5126,
            "count" : 1024,
            "type" : "VEC2"
        },
        {
            "bufferView" : 31,
            "componentType" : 5123,
            "count" : 1536,
            "type" : "SCALAR"
        },
        {
            "bufferView" : 32,
            "componentType" : 5126,
            "count" : 160,
            "max" : [
                -0.33126503229141235,
                -5.534918308258057,
                -12.70964241027832
            ],
            "min" : [
                -0.9861747026443481,
                -6.056534290313721,
                -14.994028091430664
            ],
            "type" : "VEC3"
        },
        {
            "bufferView" : 33,
            "componentType" : 5126,
            "count" : 160,
            "type" : "VEC3"
        },
        {
            "bufferView" : 34,
            "componentType" : 5126,
            "count" : 160,
            "type" : "VEC2"
        },
        {
            "bufferView" : 35,
            "componentType" : 5123,
            "count" : 240,
            "type" : "SCALAR"
        },
        {
            "bufferView" : 36,
            "componentType" : 5126,
            "count" : 160,
            "max" : [
                -0.983514130115509,
                -5.536872386932373,
                -12.702581405639648
            ],
            "min" : [
                -1.5284907817840576,
                -6.056534290313721,
                -15.012189865112305
            ],
            "type" : "VEC3"
        },
        {
            "bufferView" : 37,
            "componentType" : 5126,
            "count" : 160,
            "type" : "VEC3"
        },
        {
            "bufferView" : 38,
            "componentType" : 5126,
            "count" : 160,
            "type" : "VEC2"
        },
        {
            "bufferView" : 39,
            "componentType" : 5123,
            "count" : 240,
            "type" : "SCALAR"
        },
        {
            "bufferView" : 40,
            "componentType" : 5126,
            "count" : 160,
            "max" : [
                -0.8761184215545654,
                -5.5438103675842285,
                -15.235551834106445
            ],
            "min" : [
                -1.1098270416259766,
                -6.081467151641846,
                -17.563426971435547
            ],
            "type" : "VEC3"
        },
        {
            "bufferView" : 41,
            "componentType" : 5126,
            "count" : 160,
            "type" : "VEC3"
        },
        {
            "bufferView" : 42,
            "componentType" : 5126,
            "count" : 160,
            "type" : "VEC2"
        },
        {
            "bufferView" : 43,
            "componentType" : 5123,
            "count" : 240,
            "type" : "SCALAR"
        }
    ],
    "bufferViews" : [
        {
            "buffer" : 0,
            "byteLength" : 768,
            "byteOffset" : 0
        },
        {
            "buffer" : 0,
            "byteLength" : 768,
            "byteOffset" : 768
        },
        {
            "buffer" : 0,
            "byteLength" : 512,
            "byteOffset" : 1536
        },
        {
            "buffer" : 0,
            "byteLength" : 192,
            "byteOffset" : 2048
        },
        {
            "buffer" : 0,
            "byteLength" : 576,
            "byteOffset" : 2240
        },
        {
            "buffer" : 0,
            "byteLength" : 576,
            "byteOffset" : 2816
        },
        {
            "buffer" : 0,
            "byteLength" : 384,
            "byteOffset" : 3392
        },
        {
            "buffer" : 0,
            "byteLength" : 144,
            "byteOffset" : 3776
        },
        {
            "buffer" : 0,
            "byteLength" : 1152,
            "byteOffset" : 3920
        },
        {
            "buffer" : 0,
            "byteLength" : 1152,
            "byteOffset" : 5072
        },
        {
            "buffer" : 0,
            "byteLength" : 768,
            "byteOffset" : 6224
        },
        {
            "buffer" : 0,
            "byteLength" : 288,
            "byteOffset" : 6992
        },
        {
            "buffer" : 0,
            "byteLength" : 17040,
            "byteOffset" : 7280
        },
        {
            "buffer" : 0,
            "byteLength" : 17040,
            "byteOffset" : 24320
        },
        {
            "buffer" : 0,
            "byteLength" : 11360,
            "byteOffset" : 41360
        },
        {
            "buffer" : 0,
            "byteLength" : 4260,
            "byteOffset" : 52720
        },
        {
            "buffer" : 0,
            "byteLength" : 6912,
            "byteOffset" : 56980
        },
        {
            "buffer" : 0,
            "byteLength" : 6912,
            "byteOffset" : 63892
        },
        {
            "buffer" : 0,
            "byteLength" : 4608,
            "byteOffset" : 70804
        },
        {
            "buffer" : 0,
            "byteLength" : 1728,
            "byteOffset" : 75412
        },
        {
            "buffer" : 0,
            "byteLength" : 11520,
            "byteOffset" : 77140
        },
        {
            "buffer" : 0,
            "byteLength" : 11520,
            "byteOffset" : 88660
        },
        {
            "buffer" : 0,
            "byteLength" : 7680,
            "byteOffset" : 100180
        },
        {
            "buffer" : 0,
            "byteLength" : 3048,
            "byteOffset" : 107860
        },
        {
            "buffer" : 0,
            "byteLength" : 12288,
            "byteOffset" : 110908
        },
        {
            "buffer" : 0,
            "byteLength" : 12288,
            "byteOffset" : 123196
        },
        {
            "buffer" : 0,
            "byteLength" : 8192,
            "byteOffset" : 135484
        },
        {
            "buffer" : 0,
            "byteLength" : 3072,
            "byteOffset" : 143676
        },
        {
            "buffer" : 0,
            "byteLength" : 12288,
            "byteOffset" : 146748
        },
        {
            "buffer" : 0,
            "byteLength" : 12288,
            "byteOffset" : 159036
        },
        {
            "buffer" : 0,
            "byteLength" : 8192,
            "byteOffset" : 171324
        },
        {
            "buffer" : 0,
            "byteLength" : 3072,
            "byteOffset" : 179516
        },
        {
            "buffer" : 0,
            "byteLength" : 1920,
            "byteOffset" : 182588
        },
        {
            "buffer" : 0,
            "byteLength" : 1920,
            "byteOffset" : 184508
        },
        {
            "buffer" : 0,
            "byteLength" : 1280,
            "byteOffset" : 186428
        },
        {
            "buffer" : 0,
            "byteLength" : 480,
            "byteOffset" : 187708
        },
        {
            "buffer" : 0,
            "byteLength" : 1920,
            "byteOffset" : 188188
        },
        {
            "buffer" : 0,
            "byteLength" : 1920,
            "byteOffset" : 190108
        },
        {
            "buffer" : 0,
            "byteLength" : 1280,
            "byteOffset" : 192028
        },
        {
            "buffer" : 0,
            "byteLength" : 480,
            "byteOffset" : 193308
        },
        {
            "buffer" : 0,
            "byteLength" : 1920,
            "byteOffset" : 193788
        },
        {
            "buffer" : 0,
            "byteLength" : 1920,
            "byteOffset" : 195708
        },
        {
            "buffer" : 0,
            "byteLength" : 1280,
            "byteOffset" : 197628
        },
        {
            "buffer" : 0,
            "byteLength" : 480,
            "byteOffset" : 198908
        }
    ],
    "buffers" : [
        {
            "byteLength" : 199388,
            "uri" : "BirdRobot.bin"
        }
    ]
}
